<svg xmlns="http://www.w3.org/2000/svg" x="0px" y="0px" width="24" height="24" viewBox="0 0 64 64">
<path d="M 35 8 C 33.896 8 33 8.896 33 10 C 33 10.926507 33.63478 11.69892 34.490234 11.925781 L 31.757812 17.478516 C 31.261813 18.368516 31 19.376484 31 20.396484 L 31 22.300781 C 28.984148 20.560218 26.365959 19.5 23.5 19.5 C 17.496638 19.5 12.560253 24.126487 12.050781 30 L 12 30 C 10.811 30 9.6906875 30.5245 8.9296875 31.4375 C 8.1666875 32.3505 7.8525937 33.546734 8.0585938 34.677734 L 10.689453 50.957031 C 11.161453 53.879031 13.650328 56 16.611328 56 L 47.058594 56 C 49.959594 56 52.442938 53.928219 52.960938 51.074219 L 55.935547 34.716797 C 56.148547 33.545797 55.833312 32.3505 55.070312 31.4375 C 54.309313 30.5235 53.189 30 52 30 L 51 30 L 51 20.396484 C 51 19.375484 50.738188 18.368562 50.242188 17.476562 L 47.511719 11.925781 C 48.366251 11.6983 49 10.925852 49 10 C 49 8.896 48.104 8 47 8 L 35 8 z M 38.914062 12 L 43.087891 12 C 43.915136 13.680336 46.718082 19.373017 46.736328 19.404297 C 46.909328 19.706297 47 20.049484 47 20.396484 L 47 30 L 35 30 L 35 20.396484 C 35 20.048484 35.090672 19.70625 35.263672 19.40625 C 35.281055 19.37496 38.087849 13.677869 38.914062 12 z M 23.5 23.5 C 27.29611 23.5 30.434387 26.336413 30.925781 30 L 16.074219 30 C 16.565613 26.336413 19.70389 23.5 23.5 23.5 z M 13.175781 34 L 50.802734 34 C 51.426734 34 51.897156 34.565688 51.785156 35.179688 L 49.025391 50.359375 C 48.852391 51.309375 48.024594 52 47.058594 52 L 16.611328 52 C 15.631328 52 14.795672 51.288313 14.638672 50.320312 L 12.1875 35.160156 C 12.0885 34.552156 12.559781 34 13.175781 34 z M 23 37 C 21.896 37 21 37.896 21 39 L 21 47 C 21 48.104 21.896 49 23 49 C 24.104 49 25 48.104 25 47 L 25 39 C 25 37.896 24.104 37 23 37 z M 32 37 C 30.896 37 30 37.896 30 39 L 30 47 C 30 48.104 30.896 49 32 49 C 33.104 49 34 48.104 34 47 L 34 39 C 34 37.896 33.104 37 32 37 z M 41 37 C 39.896 37 39 37.896 39 39 L 39 47 C 39 48.104 39.896 49 41 49 C 42.104 49 43 48.104 43 47 L 43 39 C 43 37.896 42.104 37 41 37 z"></path>
</svg>