<svg xmlns="http://www.w3.org/2000/svg" x="0px" y="0px" width="24" height="24" viewBox="0 0 64 64">
<path d="M32,10c12.15,0,22,9.85,22,22s-9.85,22-22,22s-22-9.85-22-22S19.85,10,32,10z M40.364,47.932C46.09,44.919,50,38.92,50,32	c0-9.941-8.059-18-18-18s-18,8.059-18,18c0,7.233,4.276,13.453,10.43,16.314c0.079-4.404,0.157-8.756,0.157-9.145	c0-1.269-0.58-1.353-1.146-1.647c-0.369-0.192-2.788-0.851-2.788-4.136c0-2.425,0.457-10.576,0.488-11.096	c0.043-0.714,0.531-1.062,1.113-1.062c0.71,0,1.128,0.419,1.136,1.26c0.006,0.68-0.114,9.023-0.114,9.766s0.129,1.229,0.938,1.229	s1.002-0.388,1.035-1.229c0.032-0.841,0.097-9.443,0.129-10.057C25.41,21.582,25.831,21,26.574,21c0.744,0,1.164,0.582,1.197,1.196	c0.032,0.614,0.097,9.216,0.129,10.057c0.032,0.841,0.226,1.229,1.035,1.229s0.938-0.485,0.938-1.229s-0.12-9.087-0.114-9.766	c0.008-0.841,0.426-1.26,1.136-1.26c0.582,0,1.069,0.348,1.113,1.062c0.032,0.521,0.488,8.671,0.488,11.096	c0,3.285-2.42,3.944-2.788,4.136c-0.566,0.294-1.146,0.379-1.146,1.647c0,0.43,0.095,5.694,0.181,10.522	C29.801,49.884,30.886,50,32,50c1.377,0,2.712-0.169,4-0.461c0-10.447,0-26.929,0-27.245C36,21.312,36.773,21,37.347,21	c0.942,0,1.982,1.492,3.012,3.7c1.621,3.472,3.085,6.926,3.085,13.448c0,1.81-0.737,2.532-1.649,3.114	c-0.957,0.611-1.58,1.064-1.551,1.828C40.266,43.638,40.312,45.609,40.364,47.932z"></path>
</svg>